<mxfile host="app.diagrams.net" modified="2023-04-06T14:48:21.742Z" agent="Mozilla/5.0 (Macintosh; Intel Mac OS X 10_15_7) AppleWebKit/537.36 (KHTML, like Gecko) Chrome/111.0.0.0 Safari/537.36" version="21.1.4" etag="VTobK_t6A5KY8gEwq37s" type="github">
  <diagram name="第 1 页" id="YUYd0LIqAYtx54QK5Qoh">
    <mxGraphModel>
      <root>
        <mxCell id="0" />
        <mxCell id="1" parent="0" />
      </root>
    </mxGraphModel>
  </diagram>
</mxfile>
